<?xml version="1.0" encoding="utf-8"?>
<!-- Generator: Adobe Illustrator 18.1.1, SVG Export Plug-In . SVG Version: 6.00 Build 0)  -->
<svg version="1.1" id="Layer_1" xmlns="http://www.w3.org/2000/svg" xmlns:xlink="http://www.w3.org/1999/xlink" x="0px" y="0px"
	 viewBox="0 0 141.5 140.7" enable-background="new 0 0 141.5 140.7" xml:space="preserve">
<g>
	<g id="XMLID_7280_">
		<path fill="#BBBDBF" d="M130.9,141.2H10.8c-5.9,0-10.7-4.8-10.7-10.7V11.2c0-5.9,4.8-10.7,10.7-10.7h120.1
			c5.9,0,10.7,4.8,10.7,10.7v119.3C141.5,136.4,136.8,141.2,130.9,141.2z"/>
		<g>
			<g>
				<g>
					<g>
						<g>
							<path fill="none" d="M126.6,126.2h-23v30c0,0,6.8,0,13.6,0c3.4,0,6.9,0,9.4,0c2.6,0,4.7,0,6.2-0.1c0.7,0,1.3-0.1,1.7-0.2
								c0.4-0.1,0.6-0.1,0.6-0.1L126.6,126.2z"/>
						</g>
						<rect x="105.6" y="139.3" fill-rule="evenodd" clip-rule="evenodd" fill="#221F1F" width="5.1" height="3"/>
						<rect x="114.7" y="139.3" fill-rule="evenodd" clip-rule="evenodd" fill="#221F1F" width="5.1" height="3"/>
						<polygon fill-rule="evenodd" clip-rule="evenodd" fill="#221F1F" points="129,142.3 128.5,139.3 123.7,139.3 123.7,142.3 
													"/>
					</g>
				</g>
				<g>
					<g>
						<g>
							<rect x="76.3" y="126.2" fill="none" width="27.3" height="30"/>
						</g>
						<rect x="78.3" y="139.3" fill-rule="evenodd" clip-rule="evenodd" fill="#221F1F" width="5.1" height="3"/>
						<rect x="87.4" y="139.3" fill-rule="evenodd" clip-rule="evenodd" fill="#221F1F" width="5.1" height="3"/>
						<rect x="96.4" y="139.3" fill-rule="evenodd" clip-rule="evenodd" fill="#221F1F" width="5.1" height="3"/>
					</g>
				</g>
				<g>
					<g>
						<g>
							<rect x="49" y="126.2" fill="none" width="27.3" height="30"/>
						</g>
						<rect x="51" y="139.3" fill-rule="evenodd" clip-rule="evenodd" fill="#221F1F" width="5.1" height="3"/>
						<rect x="60.1" y="139.3" fill-rule="evenodd" clip-rule="evenodd" fill="#221F1F" width="5.1" height="3"/>
						<rect x="69.1" y="139.3" fill-rule="evenodd" clip-rule="evenodd" fill="#221F1F" width="5.1" height="3"/>
					</g>
				</g>
				<g>
					<g>
						<g>
							<rect x="21.7" y="126.2" fill="none" width="27.3" height="30"/>
						</g>
						<rect x="23.7" y="139.3" fill-rule="evenodd" clip-rule="evenodd" fill="#221F1F" width="5.1" height="3"/>
						<rect x="32.8" y="139.3" fill-rule="evenodd" clip-rule="evenodd" fill="#221F1F" width="5.1" height="3"/>
						<rect x="41.8" y="139.3" fill-rule="evenodd" clip-rule="evenodd" fill="#221F1F" width="5.1" height="3"/>
					</g>
				</g>
				<g>
					<g>
						<g>
							<path fill="none" d="M21.7,126.2h-6.6l-29.5,9.3c0,0,0,0.2,0.1,0.6c0.1,0.4,0.2,0.9,0.4,1.6c0.4,1.4,1.1,3.3,2.3,5.4
								c1.2,2.1,2.9,4.4,5.1,6.5c2.2,2,5,3.8,8,5c3,1.2,6.2,1.7,9.5,1.7c2.3,0,4.5,0,6.4,0c2.6,0,4.3,0,4.3,0V126.2z"/>
						</g>
						<path fill-rule="evenodd" clip-rule="evenodd" fill="#221F1F" d="M1.8,138.1l2.4-2.2c0,0-0.7-0.8-1.2-1.8
							c-0.3-0.5-0.4-1-0.6-1.4c-0.1-0.4-0.2-0.7-0.2-0.7l-2.9,1.3c0,0,0.1,0.3,0.2,0.8c0.2,0.5,0.4,1.1,0.7,1.7
							C0.9,137.1,1.8,138.1,1.8,138.1z"/>
						<path fill-rule="evenodd" clip-rule="evenodd" fill="#221F1F" d="M10.2,142.2l0.9-3c0,0-1.1,0-2.2-0.3
							c-0.5-0.1-1.1-0.3-1.4-0.5c-0.4-0.2-0.6-0.3-0.6-0.3l-1.8,2.7c0,0,0.3,0.1,0.8,0.4c0.2,0.1,0.5,0.2,0.8,0.3
							c0.3,0.1,0.6,0.2,0.9,0.3c0.6,0.2,1.3,0.3,1.8,0.4C9.9,142.2,10.2,142.2,10.2,142.2z"/>
						<polygon fill-rule="evenodd" clip-rule="evenodd" fill="#221F1F" points="19.6,142.3 19.6,139.3 14.6,139.3 14.5,142.3 						
							"/>
					</g>
				</g>
				<g>
					<g>
						<g>
							<path fill="none" d="M15.1,126.2v-22.6h-30c0,0,0,6.8,0,13.6c0,3.6,0,7.2,0,9.8c0,1.3,0,2.5,0,3.5c0.1,1,0.1,1.9,0.1,2.7
								c0.2,1.4,0.4,2.2,0.4,2.2L15.1,126.2z"/>
						</g>
						<rect x="-1" y="105.6" fill-rule="evenodd" clip-rule="evenodd" fill="#221F1F" width="3" height="5.1"/>
						<rect x="-1" y="114.7" fill-rule="evenodd" clip-rule="evenodd" fill="#221F1F" width="3" height="5.1"/>
						<polygon fill-rule="evenodd" clip-rule="evenodd" fill="#221F1F" points="-1,129 2,128.5 2,123.8 -1,123.8 						"/>
					</g>
				</g>
				<g>
					<g>
						<g>
							<rect x="-14.9" y="76.3" fill="none" width="30" height="27.3"/>
						</g>
						<rect x="-1" y="78.3" fill-rule="evenodd" clip-rule="evenodd" fill="#221F1F" width="3" height="5.1"/>
						<rect x="-1" y="87.4" fill-rule="evenodd" clip-rule="evenodd" fill="#221F1F" width="3" height="5.1"/>
						<rect x="-1" y="96.5" fill-rule="evenodd" clip-rule="evenodd" fill="#221F1F" width="3" height="5.1"/>
					</g>
				</g>
				<g>
					<g>
						<g>
							<rect x="-14.9" y="49" fill="none" width="30" height="27.3"/>
						</g>
						<rect x="-1" y="51.1" fill-rule="evenodd" clip-rule="evenodd" fill="#221F1F" width="3" height="5.1"/>
						<rect x="-1" y="60.1" fill-rule="evenodd" clip-rule="evenodd" fill="#221F1F" width="3" height="5.1"/>
						<rect x="-1" y="69.2" fill-rule="evenodd" clip-rule="evenodd" fill="#221F1F" width="3" height="5.1"/>
					</g>
				</g>
				<g>
					<g>
						<g>
							<rect x="-14.9" y="21.7" fill="none" width="30" height="27.3"/>
						</g>
						<rect x="-1" y="23.8" fill-rule="evenodd" clip-rule="evenodd" fill="#221F1F" width="3" height="5.1"/>
						<rect x="-1" y="32.8" fill-rule="evenodd" clip-rule="evenodd" fill="#221F1F" width="3" height="5.1"/>
						<rect x="-1" y="41.9" fill-rule="evenodd" clip-rule="evenodd" fill="#221F1F" width="3" height="5.1"/>
					</g>
				</g>
				<g>
					<g>
						<g>
							<path fill="none" d="M15.1,21.7v-6.2L6.5-14.1c0,0-0.8,0.2-2.2,0.5c-1.4,0.4-3.3,1-5.5,2.1c-2.1,1.1-4.5,2.8-6.6,4.9
								c-2.1,2.2-3.9,4.9-5.2,7.9c-0.6,1.5-1.1,3.1-1.4,4.6c-0.2,0.8-0.3,1.6-0.4,2.4c-0.1,0.8-0.1,1.6-0.1,2.4
								c-0.1,1.6,0,3.1,0,4.6c0,0.8,0,1.5,0,2.2c0,2.6,0,4.3,0,4.3H15.1z"/>
						</g>
						<path fill-rule="evenodd" clip-rule="evenodd" fill="#221F1F" d="M3.5,2l2.1,2.5c0,0,0.9-0.7,1.9-1.1c0.5-0.2,1-0.4,1.4-0.5
							c0.4-0.1,0.7-0.2,0.7-0.2L8.3-0.3c0,0-0.1,0-0.2,0C8-0.2,7.8-0.1,7.5-0.1C7,0.1,6.4,0.3,5.8,0.6C4.5,1.1,3.5,2,3.5,2z"/>
						<path fill-rule="evenodd" clip-rule="evenodd" fill="#221F1F" d="M-0.9,10.3l3,1c0,0,0-1.1,0.4-2.2C2.6,8.6,2.8,8,3,7.7
							c0.2-0.4,0.3-0.6,0.3-0.6L0.7,5.2c0,0-0.2,0.3-0.4,0.7C0,6.4-0.2,7-0.4,7.6C-0.8,8.9-0.9,10.3-0.9,10.3z"/>
						<polygon fill-rule="evenodd" clip-rule="evenodd" fill="#221F1F" points="-1,19.7 2,19.7 2,14.7 -1,14.5 						"/>
					</g>
				</g>
				<g>
					<g>
						<g>
							<path fill="none" d="M15.1,15.5h23v-30c0,0-6.8,0-13.6,0c-3.4,0-6.9,0-9.4,0c-2.6,0-4.7,0-6.2,0.1c-0.7,0-1.3,0.1-1.7,0.2
								c-0.4,0.1-0.6,0.1-0.6,0.1L15.1,15.5z"/>
						</g>
						<rect x="31" y="-0.5" fill-rule="evenodd" clip-rule="evenodd" fill="#221F1F" width="5.1" height="3"/>
						<rect x="21.9" y="-0.5" fill-rule="evenodd" clip-rule="evenodd" fill="#221F1F" width="5.1" height="3"/>
						<polygon fill-rule="evenodd" clip-rule="evenodd" fill="#221F1F" points="12.7,-0.5 13.1,2.5 17.9,2.5 17.9,-0.5 						"/>
					</g>
				</g>
				<g>
					<g>
						<g>
							<rect x="38.1" y="-14.5" fill="none" width="27.3" height="30"/>
						</g>
						<rect x="58.3" y="-0.5" fill-rule="evenodd" clip-rule="evenodd" fill="#221F1F" width="5.1" height="3"/>
						<rect x="49.2" y="-0.5" fill-rule="evenodd" clip-rule="evenodd" fill="#221F1F" width="5.1" height="3"/>
						<rect x="40.1" y="-0.5" fill-rule="evenodd" clip-rule="evenodd" fill="#221F1F" width="5.1" height="3"/>
					</g>
				</g>
				<g>
					<g>
						<g>
							<rect x="65.4" y="-14.5" fill="none" width="27.3" height="30"/>
						</g>
						<rect x="85.6" y="-0.5" fill-rule="evenodd" clip-rule="evenodd" fill="#221F1F" width="5.1" height="3"/>
						<rect x="76.5" y="-0.5" fill-rule="evenodd" clip-rule="evenodd" fill="#221F1F" width="5.1" height="3"/>
						<rect x="67.4" y="-0.5" fill-rule="evenodd" clip-rule="evenodd" fill="#221F1F" width="5.1" height="3"/>
					</g>
				</g>
				<g>
					<g>
						<g>
							<rect x="92.6" y="-14.5" fill="none" width="27.3" height="30"/>
						</g>
						<rect x="112.9" y="-0.5" fill-rule="evenodd" clip-rule="evenodd" fill="#221F1F" width="5.1" height="3"/>
						<rect x="103.8" y="-0.5" fill-rule="evenodd" clip-rule="evenodd" fill="#221F1F" width="5.1" height="3"/>
						<rect x="94.7" y="-0.5" fill-rule="evenodd" clip-rule="evenodd" fill="#221F1F" width="5.1" height="3"/>
					</g>
				</g>
				<g>
					<g>
						<g>
							<path fill="none" d="M119.9,15.5h6.6L156,6.3c0,0,0-0.2-0.1-0.6c-0.1-0.4-0.2-0.9-0.4-1.6c-0.4-1.4-1.1-3.3-2.3-5.4
								c-1.2-2.1-2.9-4.4-5.1-6.5c-2.2-2-5-3.8-8-5c-3-1.2-6.2-1.7-9.5-1.7c-2.3,0-4.5,0-6.4,0c-2.6,0-4.3,0-4.3,0V15.5z"/>
						</g>
						<path fill-rule="evenodd" clip-rule="evenodd" fill="#221F1F" d="M139.8,3.6l-2.4,2.2c0,0,0.7,0.8,1.2,1.8
							c0.3,0.5,0.4,1,0.6,1.4c0.1,0.4,0.2,0.7,0.2,0.7l2.9-1.3c0,0-0.1-0.3-0.2-0.8c-0.2-0.5-0.4-1.1-0.7-1.7
							C140.7,4.7,139.8,3.6,139.8,3.6z"/>
						<path fill-rule="evenodd" clip-rule="evenodd" fill="#221F1F" d="M131.4-0.5l-0.9,3c0,0,1.1,0,2.2,0.3
							c0.5,0.1,1.1,0.3,1.4,0.5c0.4,0.2,0.6,0.3,0.6,0.3l1.8-2.7c0,0-0.3-0.1-0.8-0.4c-0.2-0.1-0.5-0.2-0.8-0.3
							c-0.3-0.1-0.6-0.2-0.9-0.3c-0.6-0.2-1.3-0.3-1.8-0.4C131.7-0.5,131.4-0.5,131.4-0.5z"/>
						<polygon fill-rule="evenodd" clip-rule="evenodd" fill="#221F1F" points="122,-0.5 122,2.5 127,2.5 127.1,-0.5 						"/>
					</g>
				</g>
				<g>
					<g>
						<g>
							<path fill="none" d="M126.6,15.5v22.6h30c0,0,0-6.8,0-13.6c0-3.6,0-7.2,0-9.8c0-1.3,0-2.5,0-3.5c-0.1-1-0.1-1.9-0.1-2.7
								C156.2,7,156,6.3,156,6.3L126.6,15.5z"/>
						</g>
						<rect x="139.6" y="31" fill-rule="evenodd" clip-rule="evenodd" fill="#221F1F" width="3" height="5.1"/>
						<rect x="139.6" y="21.9" fill-rule="evenodd" clip-rule="evenodd" fill="#221F1F" width="3" height="5.1"/>
						<polygon fill-rule="evenodd" clip-rule="evenodd" fill="#221F1F" points="142.6,12.7 139.6,13.2 139.6,18 142.6,18 						"/>
					</g>
				</g>
				<g>
					<g>
						<g>
							<rect x="126.6" y="38.1" fill="none" width="30" height="27.3"/>
						</g>
						<rect x="139.6" y="58.3" fill-rule="evenodd" clip-rule="evenodd" fill="#221F1F" width="3" height="5.1"/>
						<rect x="139.6" y="49.2" fill-rule="evenodd" clip-rule="evenodd" fill="#221F1F" width="3" height="5.1"/>
						<rect x="139.6" y="40.2" fill-rule="evenodd" clip-rule="evenodd" fill="#221F1F" width="3" height="5.1"/>
					</g>
				</g>
				<g>
					<g>
						<g>
							<rect x="126.6" y="65.4" fill="none" width="30" height="27.3"/>
						</g>
						<rect x="139.6" y="85.6" fill-rule="evenodd" clip-rule="evenodd" fill="#221F1F" width="3" height="5.1"/>
						<rect x="139.6" y="76.5" fill-rule="evenodd" clip-rule="evenodd" fill="#221F1F" width="3" height="5.1"/>
						<rect x="139.6" y="67.5" fill-rule="evenodd" clip-rule="evenodd" fill="#221F1F" width="3" height="5.1"/>
					</g>
				</g>
				<g>
					<g>
						<g>
							<rect x="126.6" y="92.7" fill="none" width="30" height="27.3"/>
						</g>
						<rect x="139.6" y="112.9" fill-rule="evenodd" clip-rule="evenodd" fill="#221F1F" width="3" height="5.1"/>
						<rect x="139.6" y="103.8" fill-rule="evenodd" clip-rule="evenodd" fill="#221F1F" width="3" height="5.1"/>
						<rect x="139.6" y="94.8" fill-rule="evenodd" clip-rule="evenodd" fill="#221F1F" width="3" height="5.1"/>
					</g>
				</g>
				<g>
					<g>
						<g>
							<path fill="none" d="M126.6,120v6.2l8.5,29.6c0,0,0.8-0.2,2.2-0.5c1.4-0.4,3.3-1,5.5-2.1c2.1-1.1,4.5-2.8,6.6-4.9
								c2.1-2.2,3.9-4.9,5.2-7.9c0.6-1.5,1.1-3.1,1.4-4.6c0.2-0.8,0.3-1.6,0.4-2.4c0.1-0.8,0.1-1.6,0.1-2.4c0.1-1.6,0-3.1,0-4.6
								c0-0.8,0-1.5,0-2.2c0-2.6,0-4.3,0-4.3H126.6z"/>
						</g>
						<path fill-rule="evenodd" clip-rule="evenodd" fill="#221F1F" d="M138.1,139.7l-2.1-2.5c0,0-0.9,0.7-1.9,1.1
							c-0.5,0.2-1,0.4-1.4,0.5c-0.4,0.1-0.7,0.2-0.7,0.2l1.2,2.9c0,0,0.1,0,0.2,0c0.1,0,0.3-0.1,0.6-0.2c0.5-0.1,1.1-0.4,1.7-0.6
							C137.1,140.6,138.1,139.7,138.1,139.7z"/>
						<path fill-rule="evenodd" clip-rule="evenodd" fill="#221F1F" d="M142.5,131.5l-3-1c0,0,0,1.1-0.4,2.2c-0.2,0.5-0.4,1-0.6,1.4
							c-0.2,0.4-0.3,0.6-0.3,0.6l2.6,1.9c0,0,0.2-0.3,0.4-0.7c0.2-0.4,0.5-1.1,0.7-1.7C142.5,132.8,142.5,131.5,142.5,131.5z"/>
						<polygon fill-rule="evenodd" clip-rule="evenodd" fill="#221F1F" points="142.6,122.1 139.6,122.1 139.6,127 142.6,127.2 
													"/>
					</g>
				</g>
			</g>
		</g>
	</g>
	<g>
		<path fill="#FFFFFF" d="M59.2,12.3L59.2,12.3c-5.2,2.1-8.8,5.8-11.2,10.8l0,0c-0.3,0.2-0.4,0.5-0.5,0.8c-0.7,0.9-1.1,2-1.2,3.2
			c-1,2.3-1.3,4.8-1.4,7.2c0,0.8,0,1.6,0,2.4c0,1.8,0.2,3.5,0.7,5.2c-0.1,0.6,0.1,1.1,0.4,1.6c0.2,1.6,0.9,3,1.6,4.4
			c0.2,0.4,0.5,0.8,0.7,1.2c0.5,1.4,1.4,2.6,2.4,3.6c0.4,0.4,0.8,0.9,1.1,1.3c0.9,1.1,1.9,2.2,3.2,2.8c0.4,0.3,0.8,0.6,1.3,1
			c1.1,0.7,2.2,1.5,3.5,1.8c0.5,0.4,1.1,0.7,1.7,0.7c1.5,0.7,3.1,1.2,4.8,1.2c0.7,0.1,1.3,0.5,2,0.3c2,0.1,4,0.4,6-0.2
			c0.8,0,1.7,0.2,2.4-0.4c1.6,0,3-0.6,4.4-1.2c8-3.5,13-9.4,14.8-18c0.4-0.8,0.5-1.6,0.4-2.4c0.6-2,0.4-4,0.3-6
			c-0.1-0.7-0.2-1.3-0.3-2c0-1.7-0.5-3.3-1.2-4.8c-0.1-0.7-0.3-1.4-0.8-2c-0.3-1.2-0.9-2.2-1.6-3.2c-0.2-0.7-0.6-1.2-1.1-1.7
			c-0.7-1.3-1.7-2.3-2.8-3.2c-0.4-0.4-0.8-0.8-1.2-1.1c-0.8-0.9-1.7-1.5-2.8-2c-0.4-0.4-0.9-0.7-1.5-0.8c-1.4-1-2.9-1.6-4.5-1.9
			c-0.5-0.3-1-0.5-1.6-0.4c-1.7-0.6-3.4-0.8-5.2-0.7c-0.7,0-1.3,0-2,0c-2.4,0.5-4.9,0-7.2,1.2c-0.3,0-0.6,0-0.8,0.3l0,0
			c-0.9,0.1-1.7,0.3-2.4,0.9C59.5,12.1,59.3,12.2,59.2,12.3z"/>
		<path fill="#FFFFFF" d="M45.6,75.7L45.6,75.7c-2.3,0.9-4.2,2.3-6,3.9c-3.2,2.2-5.9,4.9-8.1,8.1c-1.5,1.7-2.8,3.5-3.5,5.6l0,0
			c-0.3,0.2-0.4,0.5-0.4,0.8c-1.7,2.9-2.8,5.9-3.2,9.2c-0.6,0.7-0.3,1.6-0.4,2.4c-0.7,2.1-0.4,4.2-0.3,6.4c-0.1,0.6,0,1.1,0.3,1.6
			c-0.1,1.5,0.4,3,0.9,4.4c0.1,0.7,0.3,1.4,0.7,2c0.2,1.5,0.9,2.7,1.7,4c0.4,0.6,0.7,1.1,1.1,1.7c0.6,1.2,1.4,2.3,2.5,3.1
			c0.4,0.5,0.9,0.7,1.6,0.8c1.7,0.6,3.4,0.9,5.2,0.9c0.5,0.4,1.1,0.3,1.6,0.3c1.9,0.1,3.7,0.6,5.6,0.4c0.7,0,1.3,0.1,2,0.1
			c1.9,0.5,3.7,0.3,5.6,0.3c0.7,0,1.3,0,2,0c2,0.1,4,0.5,6,0.2c0.7,0,1.4,0,2,0.1c1.9,0,3.7,0,5.6,0c0.7,0,1.3,0,2,0
			c2.1,0,4.3,0,6.4-0.1c0.7,0,1.4,0,2,0c2,0,4,0.3,6-0.3c0.7,0,1.3,0,2,0c2.1,0,4.3,0.1,6.4-0.2c0.7,0.1,1.4,0.2,2-0.2
			c2.1-0.1,4.3,0.1,6.4-0.5c0.8,0,1.6-0.1,2.4-0.1c0.9-0.1,1.9-0.1,2.8-0.3c1.6-0.4,3.5-0.3,4.8-1.7c2.9-3.3,4.9-7.1,5.7-11.4
			c0.5-0.7,0.5-1.6,0.6-2.4c0.6-2.2,0.7-4.5,0.5-6.8c0-0.6,0.1-1.1-0.2-1.7c-0.1-1.8-0.3-3.5-0.9-5.2c0.1-0.6-0.1-1.1-0.4-1.6
			c-0.3-1.6-0.9-3-1.6-4.4c-0.2-0.4-0.4-0.8-0.7-1.2c-0.5-1.5-1.3-2.9-2.4-4.1c-0.1-0.5-0.4-0.9-0.8-1.2c-0.6-1.2-1.4-2.2-2.4-3.1
			c-0.4-0.4-0.8-0.9-1.2-1.3c-0.8-1-1.7-2-2.8-2.7c-0.3-0.5-0.7-0.9-1.3-1.1c-1.1-1-2.2-1.9-3.5-2.6c-0.4-0.3-0.8-0.6-1.3-0.9
			c-1-0.7-2-1.4-3.1-1.8c-0.7-0.4-1.4-0.7-2.1-1.1c-1.3-0.7-2.6-1.3-4-1.6c-0.5-0.2-1-0.4-1.5-0.5c-1.5-0.8-3.2-1.1-4.8-1.4
			c-0.5-0.1-1.1-0.3-1.6-0.4c-1.7-0.2-3.5-0.5-5.2-0.7c-0.5,0-1.1-0.1-1.6-0.1c-2-0.2-4-0.2-6,0c-0.8,0-1.6,0-2.4,0.1
			c-2.3,0.3-4.6,0.4-6.8,1.1c-1,0-1.9,0.3-2.8,0.7c-3.6,0.8-6.9,2.1-10,4C46,75.2,45.7,75.3,45.6,75.7z"/>
	</g>
	<g id="XMLID_7272_">
		<rect id="XMLID_9_" x="53.8" y="111.3" fill="none" width="33.6" height="16.5"/>
		<text id="XMLID_7278_" transform="matrix(1 0 0 1 58.7824 114.5072)"><tspan x="0" y="0" fill="#3374BA" font-family="'Calibri'" font-size="4.7691">Drag &amp; drop </tspan><tspan x="9.8" y="5.7" fill="#3374BA" font-family="'Calibri'" font-size="4.7691">or</tspan><tspan x="-1.6" y="11.4" fill="#3374BA" font-family="'Calibri'" font-size="4.7691">Upload Image</tspan></text>
		<g id="XMLID_7273_">
			<path id="XMLID_7275_" fill="#3374BA" d="M89.8,96.8c0,0.7,0,1.4,0,2.1c0,0.2-0.1,0.4-0.1,0.7c-0.7,4.3-4.7,7.8-9.1,7.8
				c-6.8,0-13.6,0-20.5,0c-0.3,0-0.6,0-0.9-0.1c-3.4-0.4-6.2-2.9-7-6.3c-0.8-3.4,0.5-6.9,3.5-8.8c0.7-0.5,1.5-0.8,2.3-1.2
				c0-0.3,0-0.6,0-1c0.4-4.9,5-8.4,9.8-7.4c0.3,0.1,0.5,0,0.7-0.3c2.6-3,5.8-4.1,9.6-3.2c4.7,1.1,7.6,5.8,7.1,10.1
				c0,0.3,0.1,0.4,0.3,0.5c2.3,1.4,3.8,3.4,4.3,6.1C89.6,96.2,89.7,96.5,89.8,96.8z M70.8,88.5c-2.3,2.3-4.6,4.6-7,7
				c1.5,0,3,0,4.6,0c0,2.4,0,4.7,0,7.1c1.6,0,3.2,0,4.8,0c0-2.4,0-4.7,0-7.1c1.6,0,3.1,0,4.6,0C75.5,93.1,73.1,90.8,70.8,88.5z"/>
			<path id="XMLID_7274_" fill="#EDECED" d="M70.8,88.5c2.3,2.3,4.6,4.6,7,7c-1.5,0-3,0-4.6,0c0,2.4,0,4.7,0,7.1c-1.6,0-3.2,0-4.8,0
				c0-2.3,0-4.7,0-7.1c-1.6,0-3.1,0-4.6,0C66.2,93.1,68.5,90.8,70.8,88.5z"/>
		</g>
	</g>
</g>
</svg>
